HIERARCHY
ROOT Hips
{
  OFFSET 0 0 0
  CHANNELS 6 Xposition Yposition Zposition Zrotation Xrotation Yrotation
  JOINT Spine
  {
    OFFSET 0 10 0
    CHANNELS 3 Zrotation Xrotation Yrotation
    JOINT Neck
    {
      OFFSET 0 30 0
      CHANNELS 3 Zrotation Xrotation Yrotation
      JOINT Head
      {
        OFFSET 0 8 0
        CHANNELS 3 Zrotation Xrotation Yrotation
        End Site
        {
          OFFSET 0 10 0
        }
      }
    }
    JOINT LeftArm
    {
      OFFSET 15 30 0
      CHANNELS 3 Zrotation Xrotation Yrotation
      JOINT LeftForeArm
      {
        OFFSET 25 0 0
        CHANNELS 3 Zrotation Xrotation Yrotation
        JOINT LeftHand
        {
          OFFSET 25 0 0
          CHANNELS 3 Zrotation Xrotation Yrotation
          End Site
          {
            OFFSET 10 0 0
          }
        }
      }
    }
    JOINT RightArm
    {
      OFFSET -15 30 0
      CHANNELS 3 Zrotation Xrotation Yrotation
      JOINT RightForeArm
      {
        OFFSET -25 0 0
        CHANNELS 3 Zrotation Xrotation Yrotation
        JOINT RightHand
        {
          OFFSET -25 0 0
          CHANNELS 3 Zrotation Xrotation Yrotation
          End Site
          {
            OFFSET -10 0 0
          }
        }
      }
    }
  }
  JOINT LeftUpLeg
  {
    OFFSET 10 -10 0
    CHANNELS 3 Zrotation Xrotation Yrotation
    JOINT LeftLeg
    {
      OFFSET 0 -35 0
      CHANNELS 3 Zrotation Xrotation Yrotation
      JOINT LeftToe
      {
        OFFSET 0 -40 0
        CHANNELS 3 Zrotation Xrotation Yrotation
        JOINT LeftToeEnd
        {
          OFFSET 0 0 0
          CHANNELS 3 Zrotation Xrotation Yrotation
          End Site
          {
            OFFSET 0 0 15
          }
        }
      }
    }
  }
  JOINT RightUpLeg
  {
    OFFSET -10 -10 0
    CHANNELS 3 Zrotation Xrotation Yrotation
    JOINT RightLeg
    {
      OFFSET 0 -35 0
      CHANNELS 3 Zrotation Xrotation Yrotation
      JOINT RightToe
      {
        OFFSET 0 -40 0
        CHANNELS 3 Zrotation Xrotation Yrotation
        JOINT RightToeEnd
        {
          OFFSET 0 0 0
          CHANNELS 3 Zrotation Xrotation Yrotation
          End Site
          {
            OFFSET 0 0 15
          }
        }
      }
    }
  }
}
MOTION
Frames:	7
Frame Time:	0.0333333
60.159 91.7578 -61.9287 -1.21343 5.62984 0.0718791 5.23826 18.0833 0.287542 -16.1616 -31.0432 -6.01676 18.246 7.5457 -6.88631 -89.5519 25.8607 -4.18111 22.3141 -5.4461 -24.3641 1.19007 9.77781 0.879146 75.6323 44.5206 3.03835 -21.2645 -5.98373 27.1971 0.701467 25.3624 -1.10205 -0.498855 -8.22724 -7.72459 -0.00231138 15.3924 -0.777777 -0.222235 -4.56495 12.1696 1.98785e-016 3.18055e-015 -0 3.72948 -4.09998 10.2426 2.80085 10.4843 1.0158 -1.65319 -2.75156 -25.4381 3.97569e-016 4.77083e-015 -1.59028e-015 
60.0732 91.4935 -61.9614 -1.18197 6.13664 0.0535724 4.92831 19.0696 0.303526 -15.6318 -31.7458 -5.92157 17.5 6.63666 -6.83113 -89.2443 24.9422 -3.01183 22.473 -5.46212 -24.4814 1.19511 10.0711 0.87938 75.2383 44.2243 3.15625 -21.0045 -5.85811 26.7547 0.762688 25.0794 -1.11921 -0.559629 -10.2146 -6.7721 0.0469651 17.8848 -0.690637 0.015007 -5.73205 11.5249 -9.93923e-017 1.59028e-015 -7.95139e-016 4.07753 -6.62837 9.52659 2.73897 14.0549 0.917144 -2.12837 -4.34542 -24.8993 -3.97569e-016 1.59028e-015 -1.59028e-015 
60.012 91.2941 -61.961 -1.44755 6.65508 0.249933 5.18718 20.2069 0.182759 -16.0268 -32.3394 -5.97711 17.9382 5.40947 -6.63042 -89.237 23.5473 -2.44544 22.3345 -5.35114 -24.2077 1.25663 10.8139 0.844734 74.8585 43.9494 2.71182 -21.0286 -5.87318 26.7627 0.764588 24.805 -1.12959 -0.292792 -12.1743 -6.21551 0.138165 20.2077 -0.622362 0.228314 -6.686 10.4755 9.93923e-017 1.59028e-015 1.59028e-015 4.63415 -8.60663 9.04306 2.71536 16.5281 0.816094 -2.44446 -5.29679 -24.5779 -3.97569e-016 1.59028e-015 -0 
59.8785 90.9518 -61.9137 -1.4597 7.56137 0.259369 4.8173 20.8134 0.443813 -15.9545 -32.693 -5.67209 18.2063 3.96322 -6.1679 -89.0546 23.0254 -1.54533 22.2807 -5.26769 -23.9728 1.28577 11.0458 0.833301 75.0801 44.1189 1.93608 -20.8631 -5.79115 26.4289 0.77295 24.5536 -1.14836 -0.266008 -14.5135 -5.50994 0.210178 22.4958 -0.481004 0.424461 -7.84072 10.2869 0 0 -0 5.01009 -11.4054 8.5866 2.74454 19.9255 0.661762 -2.99553 -6.816 -24.0855 3.97569e-016 -1.59028e-015 -0 
59.7468 90.6096 -61.8289 -1.37899 8.2415 0.231052 4.62055 21.922 0.538912 -16.4221 -32.666 -5.43226 18.6776 1.69037 -5.53288 -89.4281 23.2095 -0.00668953 22.4618 -5.38594 -24.2056 1.31456 10.4109 0.829259 75.282 44.8828 0.677732 -21.0656 -5.91658 26.7468 0.785798 24.33 -1.16646 -0.37739 -16.3774 -5.22775 0.295877 24.5864 -0.39816 0.679021 -8.94365 10.0457 2.98177e-016 4.77083e-015 2.38542e-015 5.15401 -13.6004 8.1393 2.83896 22.7368 0.508996 -3.48217 -8.04376 -23.7326 -7.95139e-016 0 1.59028e-015 
59.7047 90.188 -61.7832 -1.31843 9.25285 0.159363 4.12962 22.8316 1.02388 -16.2546 -33.067 -5.16769 18.5135 -0.617562 -5.32077 -89.7473 23.1907 1.1347 22.3428 -5.31772 -23.9219 1.37608 10.9476 0.794208 75.8278 46.1053 -0.369883 -20.935 -5.8596 26.4699 0.778878 23.9214 -1.17556 -0.566931 -18.7033 -5.15808 0.352585 26.9325 -0.234142 0.974002 -10.191 10.2981 2.98177e-016 1.59028e-015 7.95139e-016 5.17565 -16.3109 7.44872 3.04689 25.6125 0.281703 -3.91356 -9.10326 -23.3915 -3.97569e-016 1.59028e-015 -0 
59.4679 89.5364 -61.6896 -1.13706 12.4384 -2.03091 2.96681 20.5971 3.29636 -15.8824 -32.5577 -4.08705 18.3212 -3.10916 -4.82573 -91.0421 23.1146 3.69379 22.2861 -5.29843 -23.6683 1.42131 11.6196 0.776027 77.5881 47.7229 -2.88415 -20.7541 -5.79263 26.0496 0.820379 24.3509 -1.19676 -0.225828 -23.6774 -3.87024 0.292721 30.1882 0.207421 1.35933 -11.9521 10.7212 -2.98177e-016 -7.95139e-016 -0 5.80189 -21.7552 9.16171 3.5959 28.739 -0.367488 -4.25359 -10.1183 -22.756 -4.41391e-032 -1.59028e-015 -1.59028e-015 
